<svg id="Layer_2" data-name="Layer 2" xmlns="http://www.w3.org/2000/svg" viewBox="0 0 525 525"><path d="M330.62,127.54a86,86,0,0,1,61.34,25c33.58,33.59,33.43,88.83-.34,125.78l-3.62,4L269.9,400.42a11.18,11.18,0,0,1-15.82,0L135.68,282l-3.35-3.67c-33.72-36.94-33.85-92.17-.29-125.73a86,86,0,0,1,61.34-25,95.47,95.47,0,0,1,64.54,25.48l4.05,3.72,4.06-3.73a95.52,95.52,0,0,1,64.59-25.52m0-6A101.72,101.72,0,0,0,262,148.64a101.68,101.68,0,0,0-68.59-27,92,92,0,0,0-65.58,26.8c-36,36-35.52,95,.1,134l-.12.13,2.61,2.61c.26.27.48.56.75.83l118.7,118.7a17.19,17.19,0,0,0,24.3,0L396.22,282.58l-.17-.17c35.67-39,36.14-98.08.15-134.07a92.08,92.08,0,0,0-65.58-26.8Z"/></svg>